<svg width="1920" height="1080" viewBox="0 0 1920 1080" fill="none" xmlns="http://www.w3.org/2000/svg">
<g clip-path="url(#clip0_206_2)">
<path d="M1920 0H0V1080H1920V0Z" fill="#474763"/>
<path d="M0 228.907C0 228.907 135.349 348.77 290.11 134.288C404.044 -23.536 609.758 1.20187e-05 609.758 1.20187e-05H968.44C968.44 1.20187e-05 924.132 155.072 716.941 185.251C675.481 191.325 633.178 189.807 592.141 181.835C539.182 171.585 405.099 173.863 412.484 275.409C423.033 420.517 148.747 291.543 246.857 475.656C319.543 612.032 276.607 676.566 188.73 666.411C140.519 660.907 102.646 626.931 94.2066 583.94C87.455 549.301 65.9341 504.221 0 510.77" fill="#2E2E4C"/>
<path d="M0 124.608C0 124.608 1.8989 126.127 5.38022 128.309C21.4154 137.989 72.0528 160.197 139.78 109.898C190.945 71.9367 243.692 37.6766 298.338 8.5413L314.374 0H0" fill="#2E2E4C"/>
<path d="M1182.7 0C1182.7 0 1188.61 138.559 1060.43 221.125C1009.27 254.056 944.492 270.19 878.875 267.627C877.292 267.533 875.71 267.532 874.022 267.438C637.398 260.035 471.877 455.156 570.936 627.596C580.431 644.204 592.352 660.432 607.121 675.902C716.097 789.786 730.338 1060.92 187.886 1080H1559.42C1559.42 1080 1447.6 1043.94 1448.44 945.712C1448.86 894.938 1411.2 848.721 1352.55 829.55C1294.73 810.664 1225.74 781.054 1167.93 735.881C1035.22 632.151 1085.43 452.214 1261.29 405.047C1263.82 404.383 1266.46 403.719 1269.1 403.054C1326.7 388.629 1356.13 337.381 1332.4 292.872C1283.24 200.91 1258.87 64.5343 1485.89 0" fill="#22223A"/>
<path d="M0 706.65C0 706.65 130.813 867.986 331.253 754.197C455.736 683.494 507.745 718.988 494.031 774.222C490.655 787.698 483.692 800.225 474.198 810.949C436.009 854.035 287.051 994.492 0 947.705V706.65Z" fill="#2E2E4C"/>
<path d="M1920 378.949V905.568C1910.51 866.752 1893.31 832.492 1872 802.503C1801.11 702.569 1617.13 651.511 1491.69 687.859C1268.68 752.678 1237.87 548.067 1362.99 502.323C1506.99 449.747 1506.46 358.64 1409.41 197.494C1312.35 36.348 1557.1 0 1557.1 0H1808.18C1808.18 0 1462.79 162.19 1700.57 332.731C1854.59 443.199 1920 378.949 1920 378.949Z" fill="#2E2E4C"/>
<path d="M1665.02 1080C1665.02 1080 1612.06 1049.54 1588.54 1000.28C1564.8 950.647 1604.15 895.128 1664.18 893.04C1734.12 890.573 1839.72 911.167 1920.11 1032.74V1080H1665.02Z" fill="#2E2E4C"/>
<path d="M1791.11 166L1796.91 249.04L1889.22 254.26L1796.91 259.48L1791.11 342.52L1785.31 259.48L1693 254.26L1785.31 249.04L1791.11 166Z" fill="white"/>
<path d="M726.646 953.304L729.178 989.652L769.583 991.93L729.178 994.302L726.646 1030.65L724.114 994.302L683.71 991.93L724.114 989.652L726.646 953.304Z" fill="white"/>
<path d="M99.7979 288.316L103.385 339.374L160.246 342.601L103.385 345.828L99.7979 396.886L96.3166 345.828L39.4551 342.601L96.3166 339.374L99.7979 288.316Z" fill="white"/>
<path d="M128.808 842.457L131.34 878.805L171.745 881.083L131.34 883.36L128.808 919.803L126.276 883.36L85.8721 881.083L126.276 878.805L128.808 842.457Z" fill="white"/>
<path d="M1117.61 302.742L1120.35 340.608L1162.34 342.981L1120.35 345.353L1117.61 383.22L1114.97 345.353L1072.88 342.981L1114.97 340.608L1117.61 302.742Z" fill="white"/>
<path d="M1038.7 746.984L1042.71 803.736L1105.69 807.248L1042.71 810.854L1038.7 867.511L1034.79 810.854L971.709 807.248L1034.79 803.736L1038.7 746.984Z" fill="white"/>
<path d="M1730.22 953.209L1732.43 984.432L1767.14 986.425L1732.43 988.418L1730.22 1019.64L1728 988.418L1693.29 986.425L1728 984.432L1730.22 953.209Z" fill="white"/>
</g>
<defs>
<clipPath id="clip0_206_2">
<rect width="1920" height="1080" fill="white"/>
</clipPath>
</defs>
</svg>
