<?xml version="1.0" encoding="utf-8"?>
<!-- Generator: Adobe Illustrator 22.1.0, SVG Export Plug-In . SVG Version: 6.00 Build 0)  -->
<svg version="1.1" id="Слой_1" xmlns="http://www.w3.org/2000/svg" xmlns:xlink="http://www.w3.org/1999/xlink" x="0px" y="0px"
	 viewBox="0 0 33.9 33.9" style="enable-background:new 0 0 33.9 33.9;" xml:space="preserve">
<style type="text/css">
	.st0{fill:#FF845B;}
	.st1{fill:#FFFFFF;}
	.st2{fill:#AEAEAE;}
</style>
<path class="st0" d="M33.9,16.9c0,6.7-3.9,12.5-9.5,15.2c-2.2,1.1-4.8,1.7-7.4,1.7c-2.7,0-5.2-0.6-7.4-1.7C3.9,29.4,0,23.6,0,16.9
	C0,7.6,7.6,0,16.9,0C26.3,0,33.9,7.6,33.9,16.9z"/>
<g>
	<path class="st1" d="M5.9,16.5c0.1-0.2,0.2-0.6,0.2-1v-2.7c0-0.4,0.1-0.6,0.3-0.8c0.2-0.2,0.4-0.3,0.8-0.3h0.3v-1.4H6.7
		c-0.8,0-1.4,0.2-1.8,0.6c-0.4,0.4-0.6,1-0.6,1.7v2.9c0,0.5-0.2,0.7-0.6,0.7H3.2v1.5h0.5c0.4,0,0.6,0.2,0.6,0.7v2.9
		c0,0.8,0.2,1.3,0.6,1.7c0.4,0.4,1,0.6,1.8,0.6h0.7v-1.4H7.1c-0.4,0-0.6-0.1-0.8-0.3c-0.2-0.2-0.3-0.5-0.3-0.8v-2.7
		c0-0.4-0.1-0.8-0.2-1c-0.1-0.2-0.3-0.4-0.6-0.5C5.5,16.8,5.7,16.7,5.9,16.5z"/>
	<path class="st1" d="M30.2,16.2c-0.2,0-0.4-0.1-0.5-0.2c-0.1-0.1-0.2-0.3-0.2-0.5v-2.9c0-0.8-0.2-1.3-0.6-1.7
		c-0.4-0.4-1-0.6-1.8-0.6h-0.7v1.4h0.3c0.4,0,0.6,0.1,0.8,0.3c0.2,0.2,0.3,0.5,0.3,0.8v2.7c0,0.4,0.1,0.8,0.2,1
		c0.1,0.2,0.3,0.4,0.6,0.5c-0.3,0.1-0.5,0.3-0.6,0.5c-0.1,0.2-0.2,0.5-0.2,1v2.7c0,0.3-0.1,0.6-0.3,0.8c-0.2,0.2-0.4,0.3-0.8,0.3
		h-0.3v1.4h0.7c0.8,0,1.4-0.2,1.8-0.6c0.4-0.4,0.6-1,0.6-1.7v-2.9c0-0.2,0.1-0.4,0.2-0.5c0.1-0.1,0.3-0.2,0.5-0.2h0.5v-1.5H30.2z"/>
</g>
<g>
	<path class="st1" d="M16.9,14.9c-1.6,0-2.9-0.2-3.8-0.5c-0.3-0.1-0.5-0.4-0.4-0.7c0.5-1.3,2.2-2.3,4.2-2.3c2,0,3.7,1,4.2,2.3
		c0.1,0.3-0.1,0.6-0.4,0.7C19.9,14.7,18.6,14.9,16.9,14.9z"/>
	<path class="st1" d="M25.9,16.6c0,1.3-3,2.4-7,2.6c-0.6,0-1.2,0.1-1.9,0.1c-0.7,0-1.3,0-1.9-0.1c-4-0.3-7-1.3-7-2.6
		c0-0.7,1-1.4,2.6-1.9c0.5-0.2,1.1-0.1,1.5,0.1c1.1,0.6,2.9,0.8,4.7,0.8c1.8,0,3.6-0.3,4.7-0.8c0.5-0.2,1-0.3,1.5-0.1
		C24.8,15.2,25.9,15.9,25.9,16.6z"/>
</g>
<path class="st1" d="M24.4,32.2c-2.2,1.1-4.8,1.7-7.4,1.7c-2.7,0-5.2-0.6-7.4-1.7l5.3-11.8c0.7,0.1,1.4,0.1,2.2,0.1s1.5,0,2.2-0.1
	L24.4,32.2z"/>
</svg>
