<?xml version="1.0" encoding="utf-8"?>
<!-- Generator: Adobe Illustrator 22.1.0, SVG Export Plug-In . SVG Version: 6.00 Build 0)  -->
<svg version="1.1" id="Слой_1" xmlns="http://www.w3.org/2000/svg" xmlns:xlink="http://www.w3.org/1999/xlink" x="0px" y="0px"
	 viewBox="0 0 150.5 33.9" style="enable-background:new 0 0 150.5 33.9;" xml:space="preserve">
<style type="text/css">
	.st0{fill:#FF845B;}
	.st1{fill:#FFFFFF;}
	.st2{fill:#AEAEAE;}
</style>
<g>
	<g>
		<path class="st1" d="M49.4,7.2V22c0,1.5-0.4,2.7-1.3,3.5c-0.8,0.8-2,1.2-3.5,1.2c-1.4,0-2.6-0.4-3.4-1.2c-0.8-0.8-1.3-2-1.3-3.5
			V7.2h3.4v14.7c0,1.3,0.7,1.5,1.2,1.5c0.6,0,1.2-0.2,1.2-1.5V7.2H49.4z"/>
	</g>
	<g>
		<polygon class="st1" points="55.1,10.5 55.1,15.1 59.1,15.1 59.1,18.4 55.1,18.4 55.1,26.5 51.6,26.5 51.6,7.2 60.1,7.2 
			60.1,10.5 		"/>
	</g>
	<g>
		<path class="st1" d="M69.3,8.3C68.4,7.4,67.2,7,65.7,7c-0.8,0-1.4,0.1-2,0.3c-0.6,0.2-1.1,0.6-1.5,1c-0.9,0.9-1.3,2.1-1.3,3.7v9.7
			c0,1.5,0.4,2.8,1.3,3.7c0.9,0.9,2.1,1.4,3.6,1.4s2.7-0.5,3.6-1.4c0.9-0.9,1.3-2.1,1.3-3.7V12C70.6,10.5,70.2,9.2,69.3,8.3z
			 M67.1,21.7c0,1.6-0.7,1.8-1.4,1.8c-0.6,0-1.4-0.2-1.4-1.8V12c0-1.6,0.7-1.8,1.4-1.8c0.6,0,1.4,0.2,1.4,1.8V21.7z"/>
	</g>
	<g>
		<g>
			<rect x="74.2" y="19.7" class="st0" width="3.7" height="3.7"/>
			<rect x="74.2" y="10.4" class="st0" width="3.7" height="3.7"/>
		</g>
	</g>
</g>
<path class="st2" d="M146.5,18.1v1.2h1.4v7.2h1.3v-7.2h1.4v-1.2H146.5z M146,20.7V20c0-0.6-0.2-1.1-0.5-1.5
	c-0.3-0.4-0.8-0.5-1.5-0.5c-0.6,0-1.1,0.2-1.4,0.5c-0.3,0.4-0.5,0.8-0.5,1.5v4.6c0,0.6,0.2,1.1,0.5,1.5c0.3,0.4,0.8,0.5,1.4,0.5
	c0.6,0,1.1-0.2,1.5-0.5c0.3-0.4,0.5-0.9,0.5-1.5v-1l-1.2-0.1v0.9c0,0.7-0.2,1-0.7,1c-0.5,0-0.7-0.3-0.7-0.9V20
	c0-0.6,0.2-0.9,0.7-0.9c0.5,0,0.7,0.3,0.7,1v0.7L146,20.7z M141.1,19.3v-1.2h-3.6v8.4h3.6v-1.2h-2.3v-2.5h1.9v-1.2h-1.9v-2.4H141.1z
	 M134.9,18.1v6.4c0,0.3-0.1,0.6-0.2,0.7c-0.1,0.1-0.3,0.2-0.6,0.2c-0.2,0-0.4,0-0.6-0.1l-0.1,1.2c0.3,0.1,0.5,0.1,0.9,0.1
	c1.3,0,2-0.7,2-2.1v-6.5H134.9z M131.7,22.1L131.7,22.1c0.6-0.2,0.9-0.8,0.9-1.7v-0.2c0-0.7-0.2-1.2-0.5-1.6
	c-0.3-0.4-0.9-0.5-1.5-0.5h-1.8v8.4h1.9c0.7,0,1.2-0.2,1.6-0.5c0.4-0.4,0.5-0.9,0.5-1.6v-0.3C132.8,23,132.5,22.3,131.7,22.1z
	 M130.1,19.3h0.5c0.5,0,0.8,0.3,0.8,1v0.3c0,0.3-0.1,0.6-0.2,0.8c-0.1,0.2-0.4,0.2-0.7,0.2h-0.4V19.3z M131.6,24.3
	c0,0.7-0.3,1-0.9,1h-0.6v-2.6h0.5c0.3,0,0.6,0.1,0.7,0.3c0.1,0.2,0.2,0.4,0.2,0.8V24.3z M127.1,18.5c-0.4-0.4-0.9-0.6-1.5-0.6
	c-0.6,0-1.1,0.2-1.5,0.6c-0.4,0.4-0.5,0.9-0.5,1.6v4.4c0,0.7,0.2,1.2,0.5,1.6c0.4,0.4,0.9,0.6,1.5,0.6c0.6,0,1.1-0.2,1.5-0.6
	c0.4-0.4,0.5-0.9,0.5-1.6v-4.4C127.6,19.4,127.4,18.9,127.1,18.5z M126.3,24.5c0,0.6-0.3,1-0.8,1c-0.5,0-0.8-0.3-0.8-1v-4.4
	c0-0.6,0.3-1,0.8-1c0.5,0,0.8,0.3,0.8,1V24.5z M119.6,18.6c-0.4-0.4-0.9-0.5-1.6-0.5h-1.8v8.4h1.8c0.7,0,1.2-0.2,1.6-0.5
	c0.4-0.4,0.5-0.9,0.5-1.6v-4.2C120.1,19.5,119.9,19,119.6,18.6z M118.8,24.3c0,0.7-0.3,1-0.9,1h-0.5v-6.1h0.5c0.6,0,0.9,0.3,0.9,1
	V24.3z M113.6,18.1v5h0l-1.5-5h-1.4v8.4h1.2v-5.6h0l1.7,5.6h1.3v-8.4H113.6z M109.6,19.3v-1.2H106v8.4h3.6v-1.2h-2.3v-2.5h1.9v-1.2
	h-1.9v-2.4H109.6z M101.2,18.1v1.2h1.4v7.2h1.3v-7.2h1.4v-1.2H101.2z M99.2,18.1v5h0l-1.5-5h-1.4v8.4h1.2v-5.6h0l1.7,5.6h1.3v-8.4
	H99.2z M94.4,18.5c-0.4-0.4-0.9-0.6-1.5-0.6c-0.6,0-1.1,0.2-1.5,0.6c-0.4,0.4-0.5,0.9-0.5,1.6v4.4c0,0.7,0.2,1.2,0.5,1.6
	c0.4,0.4,0.9,0.6,1.5,0.6c0.6,0,1.1-0.2,1.5-0.6c0.4-0.4,0.5-0.9,0.5-1.6v-4.4C95,19.4,94.8,18.9,94.4,18.5z M93.7,24.5
	c0,0.6-0.3,1-0.8,1c-0.5,0-0.8-0.3-0.8-1v-4.4c0-0.6,0.3-1,0.8-1c0.5,0,0.8,0.3,0.8,1V24.5z M88.9,22.6c0.6-0.3,0.9-1,0.9-1.9v-0.6
	c0-0.7-0.2-1.2-0.5-1.6c-0.4-0.4-0.9-0.5-1.6-0.5h-1.8v8.4h1.3v-3.6h0.6l1,3.6h1.3L88.9,22.6z M88.5,20.7c0,0.7-0.3,1-0.9,1h-0.5
	v-2.5h0.5c0.6,0,0.9,0.3,0.9,1V20.7z M85,19.3v-1.2h-3.5v8.4h1.3v-3.7h1.8v-1.2h-1.8v-2.4H85z M132.2,7.8c-0.4-0.4-0.9-0.5-1.6-0.5
	h-1.8v8.4h1.8c0.7,0,1.2-0.2,1.6-0.5c0.4-0.4,0.5-0.9,0.5-1.6V9.4C132.7,8.7,132.5,8.1,132.2,7.8z M131.4,13.4c0,0.7-0.3,1-0.9,1
	H130V8.4h0.5c0.6,0,0.9,0.3,0.9,1V13.4z M127.7,8.4V7.2h-3.6v8.4h3.6v-1.2h-2.3V12h1.9v-1.2h-1.9V8.4H127.7z M121.4,7.2v8.4h1.3V7.2
	H121.4z M120.6,8.4V7.2h-3.5v8.4h1.3V12h1.8v-1.2h-1.8V8.4H120.6z M114.4,7.2v8.4h1.3V7.2H114.4z M109.6,7.2v1.2h1.4v7.2h1.3V8.4
	h1.4V7.2H109.6z M107.6,7.2v5h0l-1.5-5h-1.4v8.4h1.2v-5.6h0l1.7,5.6h1.2V7.2H107.6z M103.6,8.4V7.2H100v8.4h3.6v-1.2h-2.3V12h1.9
	v-1.2h-1.9V8.4H103.6z M98.2,7.8c-0.4-0.4-0.9-0.5-1.6-0.5h-1.8v8.4h1.8c0.7,0,1.2-0.2,1.6-0.5c0.4-0.4,0.5-0.9,0.5-1.6V9.4
	C98.8,8.7,98.6,8.1,98.2,7.8z M97.5,13.4c0,0.7-0.3,1-0.9,1h-0.5V8.4h0.5c0.6,0,0.9,0.3,0.9,1V13.4z M92.2,7.2v8.4h1.3V7.2H92.2z
	 M89.6,7.2v5h0l-1.5-5h-1.4v8.4h1.2v-5.6h0l1.7,5.6h1.3V7.2H89.6z M84.1,7.2v6.5c0,0.6-0.2,0.8-0.7,0.8c-0.5,0-0.7-0.3-0.7-0.8V7.2
	h-1.2v6.5c0,0.6,0.2,1.1,0.5,1.5c0.3,0.3,0.8,0.5,1.4,0.5c0.6,0,1.1-0.2,1.5-0.5c0.3-0.3,0.5-0.8,0.5-1.5V7.2H84.1z"/>
<path class="st0" d="M33.9,16.9c0,6.7-3.9,12.5-9.5,15.2c-2.2,1.1-4.8,1.7-7.4,1.7c-2.7,0-5.2-0.6-7.4-1.7C3.9,29.4,0,23.6,0,16.9
	C0,7.6,7.6,0,16.9,0C26.3,0,33.9,7.6,33.9,16.9z"/>
<g>
	<path class="st1" d="M5.9,16.5c0.1-0.2,0.2-0.6,0.2-1v-2.7c0-0.4,0.1-0.6,0.3-0.8c0.2-0.2,0.4-0.3,0.8-0.3h0.3v-1.4H6.7
		c-0.8,0-1.4,0.2-1.8,0.6c-0.4,0.4-0.6,1-0.6,1.7v2.9c0,0.5-0.2,0.7-0.6,0.7H3.2v1.5h0.5c0.4,0,0.6,0.2,0.6,0.7v2.9
		c0,0.8,0.2,1.3,0.6,1.7c0.4,0.4,1,0.6,1.8,0.6h0.7v-1.4H7.1c-0.4,0-0.6-0.1-0.8-0.3c-0.2-0.2-0.3-0.5-0.3-0.8v-2.7
		c0-0.4-0.1-0.8-0.2-1c-0.1-0.2-0.3-0.4-0.6-0.5C5.5,16.8,5.7,16.7,5.9,16.5z"/>
	<path class="st1" d="M30.2,16.2c-0.2,0-0.4-0.1-0.5-0.2c-0.1-0.1-0.2-0.3-0.2-0.5v-2.9c0-0.8-0.2-1.3-0.6-1.7
		c-0.4-0.4-1-0.6-1.8-0.6h-0.7v1.4h0.3c0.4,0,0.6,0.1,0.8,0.3c0.2,0.2,0.3,0.5,0.3,0.8v2.7c0,0.4,0.1,0.8,0.2,1
		c0.1,0.2,0.3,0.4,0.6,0.5c-0.3,0.1-0.5,0.3-0.6,0.5c-0.1,0.2-0.2,0.5-0.2,1v2.7c0,0.3-0.1,0.6-0.3,0.8c-0.2,0.2-0.4,0.3-0.8,0.3
		h-0.3v1.4h0.7c0.8,0,1.4-0.2,1.8-0.6c0.4-0.4,0.6-1,0.6-1.7v-2.9c0-0.2,0.1-0.4,0.2-0.5c0.1-0.1,0.3-0.2,0.5-0.2h0.5v-1.5H30.2z"/>
</g>
<g>
	<path class="st1" d="M16.9,14.9c-1.6,0-2.9-0.2-3.8-0.5c-0.3-0.1-0.5-0.4-0.4-0.7c0.5-1.3,2.2-2.3,4.2-2.3c2,0,3.7,1,4.2,2.3
		c0.1,0.3-0.1,0.6-0.4,0.7C19.9,14.7,18.6,14.9,16.9,14.9z"/>
	<path class="st1" d="M25.9,16.6c0,1.3-3,2.4-7,2.6c-0.6,0-1.2,0.1-1.9,0.1c-0.7,0-1.3,0-1.9-0.1c-4-0.3-7-1.3-7-2.6
		c0-0.7,1-1.4,2.6-1.9c0.5-0.2,1.1-0.1,1.5,0.1c1.1,0.6,2.9,0.8,4.7,0.8c1.8,0,3.6-0.3,4.7-0.8c0.5-0.2,1-0.3,1.5-0.1
		C24.8,15.2,25.9,15.9,25.9,16.6z"/>
</g>
<path class="st1" d="M24.4,32.2c-2.2,1.1-4.8,1.7-7.4,1.7c-2.7,0-5.2-0.6-7.4-1.7l5.3-11.8c0.7,0.1,1.4,0.1,2.2,0.1s1.5,0,2.2-0.1
	L24.4,32.2z"/>
</svg>
